<svg xmlns="http://www.w3.org/2000/svg" version="1.1" xmlns:xlink="http://www.w3.org/1999/xlink" xmlns:svgjs="http://svgjs.dev/svgjs" width="2000" height="661" viewBox="0 0 2000 661"><g transform="matrix(1,0,0,1,-1.2121212121212466,-0.0318067543480538)"><svg viewBox="0 0 396 131" data-background-color="#ffffff" preserveAspectRatio="xMidYMid meet" height="661" width="2000" xmlns="http://www.w3.org/2000/svg" xmlns:xlink="http://www.w3.org/1999/xlink"><g id="tight-bounds" transform="matrix(1,0,0,1,0.2400000000000091,0.006303607896512631)"><svg viewBox="0 0 395.52 130.98739278420695" height="130.98739278420695" width="395.52"><g><svg viewBox="0 0 395.52 130.98739278420695" height="130.98739278420695" width="395.52"><g><svg viewBox="0 0 395.52 130.98739278420695" height="130.98739278420695" width="395.52"><g id="textblocktransform"><svg viewBox="0 0 395.52 130.98739278420695" height="130.98739278420695" width="395.52" id="textblock"><g><svg viewBox="0 0 395.52 130.98739278420695" height="130.98739278420695" width="395.52"><g transform="matrix(1,0,0,1,0,0)"><svg width="395.52" viewBox="0.5499999999999999 -29.6 146.88 48.650000000000006" height="130.98739278420695" data-palette-color="#000000"><path d="M9.35-13.95L10-14Q13.85-14.35 14.68-14.35 15.5-14.35 15.5-14.1L15.5-14.1Q15.5-13.8 14.33-13.48 13.15-13.15 8.6-12.65L8.6-12.65Q8.35-12.2 8-11.6L8-11.6Q7.25-10.4 7.2-10.15L7.2-10.15Q4.35-4.45 4.2-2.9L4.2-2.9Q4.15-2.45 4.15-1.75 4.15-1.05 4.55-0.6L4.55-0.6Q5.25 0.2 6.55-0.5 7.85-1.2 10.18-3.3 12.5-5.4 13.95-7.4L13.95-7.4Q14.15-7.65 14.45-7.5L14.45-7.5Q15.2-7.15 11.85-3.55L11.85-3.55Q8.65-0.1 6.5 0.7L6.5 0.7Q5.25 1.15 4.4 1.15L4.4 1.15Q2.4 1.15 1.75-0.75L1.75-0.75Q1.65-1.1 1.65-1.6L1.65-1.6Q1.65-3.35 3.25-6.9L3.25-6.9Q3-6.35 1.3-4.4L1.3-4.4Q0.85-3.9 0.6-4.4L0.6-4.4Q0.55-4.5 0.55-4.67 0.55-4.85 0.75-5.1L0.75-5.1Q3.2-8.15 4.6-10.25L4.6-10.25Q4.6-10.3 5.7-12.35L5.7-12.35Q5.2-12.25 4.67-12.25 4.15-12.25 3.9-12.58 3.65-12.9 3.85-13.35L3.85-13.35Q4.2-14.15 6.5-14.25L6.5-14.25Q6.55-14.35 6.7-14.35L6.7-14.35 9.2-19Q9.4-19.4 9.65-19.83 9.9-20.25 10.03-20.48 10.15-20.7 10.3-20.95 10.45-21.2 10.55-21.3 10.65-21.4 10.75-21.5L10.75-21.5Q10.95-21.8 11.93-21.8 12.9-21.8 13.25-21.25L13.25-21.25Q13.4-21.05 13.4-20.58 13.4-20.1 13.05-19.53 12.7-18.95 12.3-18.7 11.9-18.45 11.75-18.15L11.75-18.15 9.35-13.95ZM30.45-29.25L30.45-29.25Q31.35-29.6 32-29.6L32-29.6Q34.2-29.6 34.9-28.4L34.9-28.4Q35.3-27.8 35.3-27.35L35.3-27.35Q35.3-23.95 29.6-18.8L29.6-18.8Q24.55-14.35 20.3-11.15L20.3-11.15Q18.9-8 17.4-3.4L17.4-3.4Q19.2-5.6 21.95-8.5L21.95-8.5Q27.5-14.25 29.7-14.25L29.7-14.25Q30.8-14.25 30.85-13.15L30.85-13.15Q30.95-12 30.37-10.95 29.8-9.9 29.3-9L29.3-9Q26.95-5.1 26.95-2.05L26.95-2.05Q26.95-1.05 27.35-0.6L27.35-0.6Q28.05 0.2 29.35-0.5 30.65-1.2 32.97-3.3 35.3-5.4 36.75-7.4L36.75-7.4Q37-7.65 37.22-7.53 37.45-7.4 37.45-7.28 37.45-7.15 37.35-7L37.35-7Q36.6-5.65 34.65-3.58 32.7-1.5 31.5-0.6L31.5-0.6Q29.2 1.15 27.1 1.15L27.1 1.15Q25.2 1.15 24.55-0.75L24.55-0.75Q24.4-1.2 24.4-1.83 24.4-2.45 24.5-3.15L24.5-3.15Q24.75-5.25 27.15-9.7L27.15-9.7Q27.65-10.6 27.65-10.98 27.65-11.35 27.25-11.35L27.25-11.35Q26.45-11.35 24.15-9.35L24.15-9.35Q22.6-7.9 19.57-3.88 16.55 0.15 16.15 0.4L16.15 0.4Q14.35 1.3 13.92 1.3 13.5 1.3 13.45 1.18 13.4 1.05 13.5 0.85 13.6 0.65 14.3-1.35L14.3-1.35Q16.65-8 17.5-10.15L17.5-10.15Q15.85-8.05 13.4-5.4L13.4-5.4Q13-5 13-5.58 13-6.15 13.45-6.75 13.9-7.35 15.32-9.08 16.75-10.8 17.35-11.65L17.35-11.65Q16.9-11.9 16.87-12.35 16.85-12.8 17.17-12.98 17.5-13.15 18.25-12.85L18.25-12.85Q18.75-13.55 19.15-14.4L19.15-14.4Q25.1-27.2 30.45-29.25ZM33.25-25.5L33.25-25.5Q33.9-26.7 33.9-27.53 33.9-28.35 33.17-28.35 32.45-28.35 31.25-27.45L31.25-27.45Q25.75-23.25 21.3-13.4L21.3-13.4Q24.55-15.5 28.1-19 31.65-22.5 33.25-25.5ZM46.45-5.5L46.45-5.5Q47.35-7.35 47.35-8.35 47.35-9.35 47.12-9.93 46.9-10.5 47.32-10.9 47.75-11.3 48.4-11.2L48.4-11.2Q49.4-10.95 49.4-8.95 49.4-6.95 47.05-3.7L47.05-3.7Q47.1-2.35 48.45-2.35 49.8-2.35 52.55-5.25L52.55-5.25Q53.85-6.75 54.17-7.2 54.5-7.65 54.75-7.53 55-7.4 55-7.3L55-7.3Q55-6.8 53.2-4.7L53.2-4.7Q50.35-1.2 48.15-1.2L48.15-1.2Q46.7-1.2 46.1-2.45L46.1-2.45Q45.1-1.4 44.15-0.5L44.15-0.5Q42.2 1.15 39.8 1.15L39.8 1.15Q38.45 1.15 37.55 0.5L37.55 0.5Q35.8-0.55 35.8-3.25L35.8-3.25Q35.8-6.2 37.8-9.25L37.8-9.25Q38.95-11.05 40.5-12.4L40.5-12.4Q42.95-14.55 45.15-14.55L45.15-14.55Q45.7-14.55 46.2-14.4L46.2-14.4Q47.7-13.9 47.7-12.5L47.7-12.5Q47.7-11.35 47.1-11.35L47.1-11.35Q46.85-11.45 46.85-12.1L46.85-12.1Q46.85-13 45.85-13L45.85-13Q44.1-13 41.35-9.8 38.6-6.6 38.05-3.35L38.05-3.35Q37.95-2.8 37.95-2.13 37.95-1.45 38.4-0.58 38.85 0.3 40.07 0.3 41.3 0.3 42.75-0.8 44.2-1.9 45.35-3.6L45.35-3.6 45.2-3.9Q45-4.7 45.4-5.2 45.8-5.7 46.45-5.5ZM77.14-7Q76.39-5.65 74.44-3.55 72.49-1.45 70.94-0.3L70.94-0.3Q68.94 1.15 66.59 1.15L66.59 1.15Q66.14 1.15 65.42 0.73 64.69 0.3 64.44-0.5 64.19-1.3 64.19-2.05L64.19-2.05Q64.19-4.65 65.19-7.2L65.19-7.2Q65.04-7.1 63.82-5.08 62.59-3.05 60.82-1.25 59.04 0.55 57.24 0.55L57.24 0.55Q56.39 0.55 55.29 0.1L55.29 0.1Q53.29-0.8 53.29-3.2L53.29-3.2Q53.29-6.15 55.32-9.28 57.34-12.4 57.89-12.6L57.89-12.6Q58.64-12.8 59.32-12.8 59.99-12.8 60.69-12.53 61.39-12.25 60.49-11.6L60.49-11.6Q57.04-8.45 55.59-4.6L55.59-4.6Q55.04-3.1 55.04-2.08 55.04-1.05 55.57-0.75 56.09-0.45 56.59-0.45L56.59-0.45Q57.79-0.45 59.87-2.13 61.94-3.8 65.59-9.1L65.59-9.1Q66.09-9.85 67.34-12.03 68.59-14.2 68.84-14.6L68.84-14.6Q69.64-14.6 70.72-14.23 71.79-13.85 71.44-13.25L71.44-13.25Q69.04-9.25 68.07-7.35 67.09-5.45 66.74-2.9L66.74-2.9Q66.69-2.45 66.69-1.75 66.69-1.05 67.09-0.6L67.09-0.6Q67.84 0.2 69.17-0.53 70.49-1.25 72.79-3.33 75.09-5.4 76.49-7.4L76.49-7.4Q76.69-7.65 76.97-7.53 77.24-7.4 77.24-7.28 77.24-7.15 77.14-7L77.14-7ZM74.54 19.05L74.54 19.05Q74.14 19.05 73.54 18.9L73.54 18.9Q70.99 18.25 70.99 16.23 70.99 14.2 73.62 11.15 76.24 8.1 84.69 2.5L84.69 2.5Q88.29-4.85 89.69-9.15L89.69-9.15Q86.89-5.75 85.69-4.45L85.69-4.45Q81.19 0.55 78.44 0.55L78.44 0.55Q77.64 0.55 76.72 0.08 75.79-0.4 75.14-1.28 74.49-2.15 74.49-3.15L74.49-3.15Q74.49-5.8 78.19-9.1L78.19-9.1Q80.39-11.1 82.79-12.5 85.19-13.9 86.59-14.25 87.99-14.6 89.29-14.6 90.59-14.6 91.59-13.9 92.59-13.2 92.59-12.5L92.59-12.5Q92.59-12.1 92.19-12.25L92.19-12.25Q91.64-13.2 89.77-13.2 87.89-13.2 85.52-11.98 83.14-10.75 81.24-9.08 79.34-7.4 78.02-5.28 76.69-3.15 76.69-2.15L76.69-2.15Q76.69-0.4 77.69-0.4L77.69-0.4Q79.09-0.4 81.99-2.7L81.99-2.7Q86.29-6.05 90.24-10.85L90.24-10.85Q90.89-11.8 92.94-10.8L92.94-10.8Q93.74-10.4 93.59-10.1L93.59-10.1Q92.94-8.65 91.22-5.08 89.49-1.5 88.64 0.3L88.64 0.3Q89.79-0.3 92.57-2.73 95.34-5.15 97.44-7.6L97.44-7.6Q98.54-8.9 98.54-8L98.54-8Q98.54-6.75 92.54-1.4L92.54-1.4Q89.09 1.7 87.64 2.5L87.64 2.5Q83.39 11.25 81.94 13.5L81.94 13.5Q78.19 19.05 74.54 19.05ZM83.74 4.4L83.74 4.4Q77.74 8.9 75.14 11.53 72.54 14.15 72.54 16.45L72.54 16.45Q72.54 17.15 72.99 17.45 73.44 17.75 73.94 17.75 74.44 17.75 75.39 17 76.34 16.25 77.02 15.53 77.69 14.8 78.19 14.18 78.69 13.55 79.32 12.58 79.94 11.6 80.29 11.05 80.64 10.5 81.27 9.33 81.89 8.15 82.12 7.73 82.34 7.3 82.97 6 83.59 4.7 83.74 4.4ZM113.84-29.25L113.84-29.25Q114.74-29.6 115.39-29.6L115.39-29.6Q117.59-29.6 118.29-28.4L118.29-28.4Q118.69-27.8 118.69-27.35L118.69-27.35Q118.69-23.95 112.99-18.8L112.99-18.8Q107.94-14.35 103.69-11.15L103.69-11.15Q102.29-8 100.79-3.4L100.79-3.4Q102.59-5.6 105.34-8.5L105.34-8.5Q110.89-14.25 113.09-14.25L113.09-14.25Q114.19-14.25 114.24-13.15L114.24-13.15Q114.34-12 113.76-10.95 113.19-9.9 112.69-9L112.69-9Q110.34-5.1 110.34-2.05L110.34-2.05Q110.34-1.05 110.74-0.6L110.74-0.6Q111.44 0.2 112.74-0.5 114.04-1.2 116.36-3.3 118.69-5.4 120.14-7.4L120.14-7.4Q120.39-7.65 120.61-7.53 120.84-7.4 120.84-7.28 120.84-7.15 120.74-7L120.74-7Q119.99-5.65 118.04-3.58 116.09-1.5 114.89-0.6L114.89-0.6Q112.59 1.15 110.49 1.15L110.49 1.15Q108.59 1.15 107.94-0.75L107.94-0.75Q107.79-1.2 107.79-1.83 107.79-2.45 107.89-3.15L107.89-3.15Q108.14-5.25 110.54-9.7L110.54-9.7Q111.04-10.6 111.04-10.98 111.04-11.35 110.64-11.35L110.64-11.35Q109.84-11.35 107.54-9.35L107.54-9.35Q105.99-7.9 102.96-3.88 99.94 0.15 99.54 0.4L99.54 0.4Q97.74 1.3 97.31 1.3 96.89 1.3 96.84 1.18 96.79 1.05 96.89 0.85 96.99 0.65 97.69-1.35L97.69-1.35Q100.04-8 100.89-10.15L100.89-10.15Q99.24-8.05 96.79-5.4L96.79-5.4Q96.39-5 96.39-5.58 96.39-6.15 96.84-6.75 97.29-7.35 98.71-9.08 100.14-10.8 100.74-11.65L100.74-11.65Q100.29-11.9 100.26-12.35 100.24-12.8 100.56-12.98 100.89-13.15 101.64-12.85L101.64-12.85Q102.14-13.55 102.54-14.4L102.54-14.4Q108.49-27.2 113.84-29.25ZM116.64-25.5L116.64-25.5Q117.29-26.7 117.29-27.53 117.29-28.35 116.56-28.35 115.84-28.35 114.64-27.45L114.64-27.45Q109.14-23.25 104.69-13.4L104.69-13.4Q107.94-15.5 111.49-19 115.04-22.5 116.64-25.5ZM126.84-13.95L127.49-14Q131.34-14.35 132.16-14.35 132.99-14.35 132.99-14.1L132.99-14.1Q132.99-13.8 131.81-13.48 130.64-13.15 126.09-12.65L126.09-12.65Q125.84-12.2 125.49-11.6L125.49-11.6Q124.74-10.4 124.69-10.15L124.69-10.15Q121.84-4.45 121.69-2.9L121.69-2.9Q121.64-2.45 121.64-1.75 121.64-1.05 122.04-0.6L122.04-0.6Q122.74 0.2 124.04-0.5 125.34-1.2 127.66-3.3 129.99-5.4 131.44-7.4L131.44-7.4Q131.64-7.65 131.94-7.5L131.94-7.5Q132.69-7.15 129.34-3.55L129.34-3.55Q126.14-0.1 123.99 0.7L123.99 0.7Q122.74 1.15 121.89 1.15L121.89 1.15Q119.89 1.15 119.24-0.75L119.24-0.75Q119.14-1.1 119.14-1.6L119.14-1.6Q119.14-3.35 120.74-6.9L120.74-6.9Q120.49-6.35 118.79-4.4L118.79-4.4Q118.34-3.9 118.09-4.4L118.09-4.4Q118.04-4.5 118.04-4.67 118.04-4.85 118.24-5.1L118.24-5.1Q120.69-8.15 122.09-10.25L122.09-10.25Q122.09-10.3 123.19-12.35L123.19-12.35Q122.69-12.25 122.16-12.25 121.64-12.25 121.39-12.58 121.14-12.9 121.34-13.35L121.34-13.35Q121.69-14.15 123.99-14.25L123.99-14.25Q124.04-14.35 124.19-14.35L124.19-14.35 126.69-19Q126.89-19.4 127.14-19.83 127.39-20.25 127.51-20.48 127.64-20.7 127.79-20.95 127.94-21.2 128.04-21.3 128.14-21.4 128.24-21.5L128.24-21.5Q128.44-21.8 129.41-21.8 130.39-21.8 130.74-21.25L130.74-21.25Q130.89-21.05 130.89-20.58 130.89-20.1 130.54-19.53 130.19-18.95 129.79-18.7 129.39-18.45 129.24-18.15L129.24-18.15 126.84-13.95ZM131.28 0.5L131.28 0.5Q130.63 1.25 131.01 1.7 131.38 2.15 131.86 2.15 132.33 2.15 132.83 2L132.83 2Q134.98 1.35 137.01-0.58 139.03-2.5 139.03-4.5L139.03-4.5Q139.03-5.6 136.58-6.9L136.58-6.9Q135.43-7.5 135.28-7.6L135.28-7.6Q133.93-8.5 133.58-9.4L133.58-9.4Q132.88-8.2 131.33-5.95L131.33-5.95Q130.98-5.55 130.68-5.78 130.38-6 130.63-6.4L130.63-6.4Q132.68-9.2 133.33-11.1L133.33-11.1Q133.68-13.85 137.33-16.05 140.98-18.25 143.98-18.25L143.98-18.25Q145.88-18.25 146.66-17.57 147.43-16.9 147.43-16.25 147.43-15.6 147.06-14.75 146.68-13.9 145.53-13.15L145.53-13.15Q145.23-12.95 145.03-13.25L145.03-13.25Q144.93-13.55 145.46-14.08 145.98-14.6 146.13-15.5 146.28-16.4 145.33-16.6L145.33-16.6Q145.18-16.6 145.03-16.6L145.03-16.6Q143.08-16.6 140.16-15.15 137.23-13.7 135.58-11.4L135.58-11.4Q134.93-10.55 134.93-9.68 134.93-8.8 136.13-8.1L136.13-8.1Q136.63-7.8 137.83-7.15 139.03-6.5 139.53-6.2 140.03-5.9 140.73-5.25 141.43-4.6 141.48-4.05L141.48-4.05Q141.73-2.55 140.08-0.75L140.08-0.75Q137.73 1.85 133.08 2.9L133.08 2.9Q132.03 3.15 130.96 3.15 129.88 3.15 129.48 2.35L129.48 2.35Q129.33 2.15 129.33 1.73 129.33 1.3 130.13 0.35L130.13 0.35Q130.88-0.4 132.53-1.1L132.53-1.1Q132.68-1.15 132.78-1.05 132.88-0.95 132.83-0.8 132.78-0.65 132.31-0.45 131.83-0.25 131.28 0.5Z" opacity="1" transform="matrix(1,0,0,1,0,0)" fill="#000000" class="wordmark-text-0" data-fill-palette-color="primary" id="text-0"></path></svg></g></svg></g></svg></g></svg></g><g></g></svg></g><defs></defs></svg><rect width="395.52" height="130.98739278420695" fill="none" stroke="none" visibility="hidden"></rect></g></svg></g></svg>